<svg version="1.0"
    xmlns="http://www.w3.org/2000/svg" width="1rem" height="1rem" viewBox="0 0 900.000000 900.000000" preserveAspectRatio="xMidYMid meet">
    <g transform="translate(0.000000,900.000000) scale(0.100000,-0.100000)" fill="#006da2" stroke="none">
        <path d="M7060 8990 c0 -6 -62 -73 -138 -148 -75 -75 -166 -171 -202 -212 -35 -41 -71 -82 -80 -91 -15 -16 -44 -51 -108 -133 -17 -22 -36 -46 -41 -51 -4 -6 -25 -35 -46 -65 -21 -30 -41 -57 -44 -60 -3 -3 -10 -12 -16 -22 -21 -34 -94 -144 -104 -155 -6 -7 -11 -14 -11 -17 0 -3 -14 -25 -31 -50 -27 -40 -40 -51 -59 -47 -12 2 -187 62 -205 70 -19 9 -45 16 -150 42 -22 6 -44 14 -49 20 -6 5 -21 9 -34 9 -22 0 -77 12 -207 45 -27 8 -84 19 -125 25 -41 6 -113 18 -160 26 -47 8 -159 21 -249 29 -90 8 -171 17 -180 19 -40 12 -667 17 -826 6 -237 -15 -463 -37 -572 -55 -51 -8 -132 -21 -180 -29 -49 -8 -119 -22 -158 -31 -38 -10 -97 -23 -130 -30 -33 -7 -85 -21 -115 -30 -30 -9 -73 -21 -95 -26 -22 -5 -49 -14 -60 -19 -11 -5 -51 -19 -90 -30 -38 -12 -79 -26 -90 -31 -11 -5 -45 -18 -75 -29 -30 -11 -64 -25 -75 -30 -11 -5 -42 -18 -70 -30 -148 -63 -513 -266 -571 -318 -11 -9 -42 -32 -69 -51 -28 -19 -64 -46 -81 -60 -17 -14 -51 -42 -75 -61 -92 -72 -370 -361 -473 -490 -175 -220 -307 -429 -427 -672 -33 -68 -67 -135 -75 -150 -7 -14 -14 -31 -14 -38 0 -6 -11 -35 -24 -63 -13 -29 -33 -81 -46 -117 -12 -36 -26 -74 -30 -85 -4 -11 -18 -51 -29 -90 -12 -38 -25 -83 -31 -100 -21 -70 -71 -288 -89 -395 -42 -234 -41 -225 -71 -575 -12 -127 -11 -515 0 -665 16 -215 30 -355 39 -405 5 -27 14 -81 21 -120 14 -94 36 -206 55 -285 9 -36 20 -85 25 -108 11 -51 50 -173 91 -288 16 -44 29 -83 29 -88 0 -8 35 -91 50 -118 6 -10 10 -22 10 -28 0 -5 28 -67 62 -137 199 -411 488 -790 817 -1073 35 -30 69 -60 75 -66 6 -6 61 -48 121 -93 61 -46 114 -87 119 -91 12 -12 -43 -39 -159 -78 -55 -18 -113 -39 -130 -47 -16 -7 -55 -22 -85 -34 -62 -25 -91 -37 -135 -56 -16 -8 -52 -24 -80 -35 -74 -33 -221 -107 -265 -135 -22 -14 -42 -25 -46 -25 -3 0 -26 -13 -51 -30 -24 -16 -47 -30 -50 -30 -3 0 -22 -13 -43 -30 -21 -16 -41 -30 -44 -30 -11 0 -206 -149 -255 -194 -107 -100 -261 -275 -261 -299 0 -4 78 -6 173 -5 l172 3 3 25 c13 102 127 281 238 374 46 39 227 156 240 156 4 0 30 11 59 24 97 46 170 69 345 108 83 18 129 21 355 21 162 1 283 -4 320 -11 33 -7 92 -16 130 -22 117 -17 270 -49 420 -90 183 -50 242 -67 253 -74 6 -3 34 -11 64 -17 116 -24 188 -39 303 -64 218 -46 259 -53 400 -70 77 -9 176 -21 220 -28 115 -17 1044 -16 1185 1 58 7 161 20 230 28 130 16 194 26 320 50 41 8 100 19 130 24 30 5 66 14 80 19 14 5 59 17 100 26 138 32 401 120 560 187 61 25 93 40 215 101 475 235 855 557 1191 1008 89 120 85 114 158 229 65 101 72 114 163 295 95 188 182 394 208 495 3 14 10 34 15 45 11 28 37 113 45 155 4 19 11 41 16 50 11 22 58 239 75 350 39 242 45 300 60 530 21 341 9 771 -30 1025 -30 192 -45 280 -60 340 -8 33 -20 87 -27 120 -6 33 -15 69 -20 80 -5 11 -13 38 -18 60 -19 76 -44 156 -79 250 -8 22 -20 56 -27 75 -71 193 -218 501 -288 605 -15 22 -27 43 -27 47 0 20 -232 345 -257 361 -7 4 -13 14 -13 20 0 7 -8 20 -17 28 -10 9 -41 42 -70 75 -56 65 -216 224 -277 276 -22 18 -56 47 -75 64 -107 92 -364 267 -501 343 -41 22 -135 70 -208 106 -73 36 -136 73 -139 81 -6 18 67 93 164 167 59 45 206 137 220 137 3 0 29 11 57 24 29 14 81 34 116 46 36 12 79 28 97 36 17 8 41 14 54 14 12 0 45 6 73 14 106 29 155 38 296 49 159 13 448 14 721 2 135 -6 181 -5 200 5 13 7 37 17 54 21 58 15 102 35 138 62 20 15 39 27 43 27 12 0 134 132 134 145 0 7 6 17 13 23 39 33 107 233 107 317 l0 25 -915 0 c-631 0 -915 -3 -915 -10z m-1628 -2437 c100 -40 158 -94 206 -195 95 -199 11 -413 -203 -513 -30 -14 -64 -19 -135 -19 -87 0 -100 2 -160 32 -36 18 -82 48 -104 67 -25 23 -48 35 -67 35 -30 0 -190 -36 -224 -51 -11 -4 -49 -15 -85 -24 -71 -17 -154 -41 -300 -86 -52 -16 -120 -37 -150 -46 -30 -10 -59 -20 -65 -24 -5 -4 -26 -10 -45 -14 -19 -4 -39 -11 -45 -15 -5 -4 -26 -13 -45 -18 -53 -16 -173 -60 -192 -72 -10 -5 -23 -10 -29 -10 -6 0 -25 -6 -42 -14 -76 -35 -126 -56 -131 -56 -5 0 -91 -39 -216 -97 -134 -63 -290 -143 -356 -184 -35 -21 -67 -39 -70 -39 -8 0 -141 -85 -222 -142 -272 -190 -487 -392 -641 -602 -109 -148 -176 -274 -216 -406 -9 -30 -21 -65 -26 -78 -5 -12 -17 -83 -26 -157 -16 -127 -16 -142 0 -276 10 -78 21 -147 26 -153 5 -6 12 -27 16 -46 9 -39 5 -31 71 -165 90 -185 288 -410 484 -553 47 -34 90 -66 95 -70 60 -45 374 -202 404 -202 9 0 62 -21 101 -40 15 -7 101 -34 165 -51 213 -57 234 -61 375 -83 300 -47 538 -62 762 -47 95 7 214 17 263 23 181 21 215 22 215 6 0 -31 -82 -51 -340 -84 -342 -44 -714 -45 -1010 -4 -194 27 -495 101 -597 146 -17 8 -36 14 -42 14 -6 0 -19 4 -29 10 -9 5 -46 21 -82 36 -261 105 -510 269 -682 449 -252 263 -390 531 -430 835 -13 98 -3 338 17 420 24 102 48 184 55 195 4 6 10 22 14 37 7 32 59 148 87 198 11 19 27 49 35 65 114 227 407 543 713 768 122 90 337 233 411 274 19 10 53 30 75 44 33 21 394 201 460 229 11 5 43 18 70 30 28 11 58 25 67 30 10 6 23 10 28 10 6 0 30 8 53 19 66 29 251 96 377 137 63 20 124 40 135 44 18 8 57 20 220 67 28 8 93 27 145 43 52 15 122 36 155 45 33 10 79 23 103 31 23 8 49 14 56 14 19 0 50 38 86 105 53 100 146 174 243 195 57 12 168 3 219 -17z m1536 -579 c91 -30 174 -105 214 -194 11 -25 25 -53 30 -64 5 -10 10 -53 10 -96 0 -64 -5 -88 -30 -141 -36 -79 -104 -149 -187 -189 -55 -27 -72 -30 -155 -30 -103 0 -161 20 -230 81 -19 16 -54 42 -78 56 -42 25 -43 25 -160 14 -199 -18 -621 -78 -827 -116 -44 -8 -118 -21 -165 -30 -47 -8 -116 -22 -155 -30 -38 -9 -99 -22 -135 -29 -36 -7 -72 -15 -80 -18 -8 -3 -58 -15 -110 -27 -94 -22 -177 -43 -235 -61 -16 -4 -46 -11 -65 -15 -19 -3 -44 -10 -55 -15 -11 -5 -47 -16 -80 -25 -128 -36 -424 -134 -470 -155 -11 -5 -45 -19 -75 -30 -30 -11 -64 -25 -75 -30 -11 -5 -42 -19 -70 -30 -193 -83 -498 -248 -625 -339 -25 -17 -56 -39 -70 -49 -59 -39 -200 -165 -265 -235 -235 -256 -328 -471 -312 -722 6 -85 29 -199 47 -234 5 -9 23 -46 40 -84 18 -37 37 -73 43 -80 7 -6 24 -30 39 -52 40 -59 160 -178 253 -250 128 -100 198 -140 450 -255 36 -17 200 -72 280 -95 33 -9 71 -21 85 -25 14 -5 50 -14 80 -20 30 -6 87 -17 125 -25 169 -37 363 -57 600 -62 132 -3 244 -9 249 -14 6 -5 2 -17 -9 -29 -17 -19 -30 -20 -287 -20 -238 0 -341 6 -583 33 -105 12 -231 37 -345 67 -59 15 -184 52 -205 60 -11 4 -42 16 -70 25 -27 10 -70 26 -95 37 -25 11 -61 26 -80 34 -19 8 -43 19 -53 25 -10 5 -44 24 -75 40 -69 37 -125 71 -132 79 -3 3 -36 28 -75 55 -71 50 -239 212 -285 274 -101 138 -167 293 -195 465 -26 156 -4 333 63 496 28 69 76 165 89 178 7 7 13 18 13 23 0 19 145 203 229 292 119 125 249 231 433 353 86 57 160 104 164 104 3 0 32 15 63 34 84 50 327 171 456 226 11 5 36 15 55 24 48 20 204 79 265 101 28 9 59 21 70 25 48 20 147 50 163 50 10 0 22 3 25 7 11 10 149 53 173 53 11 0 24 4 30 9 5 4 52 18 104 31 52 12 102 26 110 30 8 4 60 17 115 29 55 12 116 26 135 32 69 19 348 76 515 104 44 7 87 16 95 19 8 3 49 10 90 15 95 13 256 38 295 46 17 3 68 10 115 15 158 16 255 31 278 42 13 7 43 39 66 72 55 77 90 108 160 141 94 44 186 51 284 19z m-913 -898 c104 -29 189 -95 241 -189 26 -47 29 -61 29 -148 0 -84 -3 -102 -27 -150 -27 -52 -80 -115 -129 -151 -21 -17 -53 -29 -140 -57 -100 -31 -254 16 -358 109 -19 17 -45 33 -59 37 -27 6 -242 -12 -312 -27 -25 -6 -97 -20 -160 -31 -110 -20 -317 -70 -370 -89 -14 -4 -59 -18 -100 -30 -41 -12 -84 -25 -95 -30 -11 -5 -51 -19 -90 -31 -38 -13 -81 -29 -95 -36 -14 -7 -31 -13 -38 -13 -7 0 -20 -4 -30 -10 -22 -12 -109 -50 -116 -50 -2 0 -35 -14 -73 -31 -37 -17 -84 -38 -103 -46 -423 -187 -792 -498 -896 -754 -23 -56 -26 -74 -22 -149 4 -73 9 -93 39 -147 84 -152 259 -284 519 -389 47 -19 94 -39 105 -44 11 -5 49 -19 85 -30 36 -12 74 -25 85 -30 23 -11 186 -56 265 -75 30 -7 84 -21 120 -30 36 -9 98 -23 138 -31 39 -8 107 -21 150 -30 42 -8 98 -19 125 -23 52 -8 73 -23 62 -42 -9 -14 -185 -6 -258 11 -23 5 -85 15 -137 20 -181 20 -455 70 -570 104 -25 8 -74 22 -110 32 -36 9 -69 21 -75 25 -5 4 -25 10 -43 14 -18 3 -45 12 -60 20 -15 7 -42 19 -61 26 -66 27 -217 105 -271 141 -85 56 -209 181 -238 238 -7 14 -20 39 -30 55 -40 68 -54 136 -49 240 4 109 20 176 64 264 33 67 81 148 104 176 9 11 40 48 68 82 50 61 200 196 296 266 28 20 55 40 60 45 30 24 249 165 300 193 182 99 317 163 550 259 11 4 49 18 85 30 36 12 74 26 85 30 11 5 54 18 95 30 41 12 86 26 100 31 14 4 43 13 65 18 22 5 76 18 120 30 44 11 107 25 140 31 33 5 94 17 135 25 41 9 113 22 160 30 182 31 206 36 235 51 17 9 45 38 64 66 97 140 271 207 426 164z"/>
        <path d="M5259 6288 c-29 -7 -40 -18 -54 -48 -16 -36 -16 -40 1 -79 37 -84 146 -87 180 -4 13 30 14 44 5 75 -16 53 -64 74 -132 56z"/>
        <path d="M6801 5713 c-43 -17 -66 -67 -56 -119 5 -28 14 -39 49 -56 53 -25 86 -19 129 23 26 26 29 35 24 72 -7 54 -44 87 -95 86 -20 0 -43 -3 -51 -6z"/>
        <path d="M5880 4798 c-28 -31 -35 -63 -20 -99 17 -41 47 -59 98 -59 60 0 92 32 92 94 0 36 -5 48 -26 65 -38 30 -116 29 -144 -1z"/>
    </g>
</svg> 